<?xml version="1.0" encoding="UTF-8"?>
<svg id="Capa_1" data-name="Capa 1" xmlns="http://www.w3.org/2000/svg" viewBox="0 0 27 27">
  <defs>
    <style>
      .cls-1 {
        fill: #555;
      }

      .cls-2 {
        fill: #f2f2f2;
      }
    </style>
  </defs>
  <rect class="cls-1" width="27" height="27" rx="4.05" ry="4.05"/>
  <path class="cls-2" d="m21.62,17.61s-.53,1.53-1.58,3.11c-.26.47-1.53,2.27-3.06,2.27-1.11,0-1.85-.79-3.27-.79-1.74,0-2.43.79-3.53.79-.58.05-1.16-.26-1.79-.84-4.06-3.85-4.27-9.54-2.74-11.87.95-1.53,2.53-2.48,4.27-2.53,1.37,0,2.85.9,3.43.9.42,0,2.64-1.05,3.9-.95,1.74.16,2.95.79,3.85,2-2.58,1.27-3.48,6.17.53,7.91Zm-4.27-14.66c.42,1.69-1.42,4.9-4.17,4.75-.16-2.27,1.79-4.59,4.17-4.75Z"/>
</svg>