<?xml version="1.0" encoding="UTF-8"?>
<svg id="Capa_1" data-name="Capa 1" xmlns="http://www.w3.org/2000/svg" viewBox="0 0 22.94 22.94">
  <defs>
    <style>
      .cls-1 {
        fill: #fff;
      }

      .cls-2 {
        fill: #4285f4;
      }

      .cls-3 {
        fill: #34a853;
      }

      .cls-4 {
        fill: #fbbc02;
      }

      .cls-5 {
        fill: #ea4335;
      }
    </style>
  </defs>
  <rect class="cls-1" width="22.94" height="22.94" rx="3.44" ry="3.44"/>
  <path class="cls-2" d="m17.29,17.92c2.02-1.88,2.91-5.02,2.37-8.02h-8.02v3.32h4.57c-.18,1.08-.81,1.97-1.7,2.55l2.78,2.15Z"/>
  <path class="cls-3" d="m4.03,15.28c2.15,4.24,7.33,5.93,11.56,3.78.61-.31,1.18-.69,1.7-1.13l-2.78-2.15c-2.37,1.57-6.32.99-7.66-2.69l-2.82,2.2Z"/>
  <path class="cls-4" d="m6.85,13.08c-.36-1.12-.36-2.15,0-3.27l-2.82-2.2c-1.03,2.06-1.34,4.97,0,7.66l2.82-2.2Z"/>
  <path class="cls-5" d="m6.85,9.81c.99-3.09,5.2-4.88,8.02-2.24l2.46-2.42C13.84,1.79,7.03,1.93,4.03,7.62l2.82,2.2Z"/>
</svg>